<svg version="1.1" xmlns="http://www.w3.org/2000/svg" xmlns:xlink="http://www.w3.org/1999/xlink" width="1004" height="852"><defs/><g><g transform="translate(-270,-206) scale(1,1)"><path fill="#C0C0C0" stroke="none" d="M 287 233 L 1260 233 L 1260 1054 L 287 1054" opacity="0.2"/></g><g transform="translate(-270,-206) scale(1,1)"><path fill="#C0C0C0" stroke="none" d="M 287 233 L 297 223 L 1270 223 L 1260 233" opacity="0.2"/></g><g transform="translate(-270,-206) scale(1,1)"><path fill="#C0C0C0" stroke="none" d="M 1270 223 L 1260 233 L 1260 1054 L 1270 1044" opacity="0.2"/></g><g transform="translate(-270,-206) scale(1,1)"><path fill="#ffffff" stroke="none" d="M 280 226 L 1253 226 L 1253 1047 L 280 1047"/></g><g transform="translate(-270,-206) scale(1,1)"><path fill="#ffffff" stroke="none" d="M 280 226 L 290 216 L 1263 216 L 1253 226"/></g><g transform="translate(-270,-206) scale(1,1)"><path fill="#ffffff" stroke="none" d="M 1263 216 L 1253 226 L 1253 1047 L 1263 1037"/></g><g transform="translate(-270,-206) scale(1,1)"><path fill="none" stroke="#000000" d="M 280 226 L 1253 226 L 1253 1047 L 280 1047 L 280 226" stroke-miterlimit="10"/></g><g transform="translate(-270,-206) scale(1,1)"><path fill="none" stroke="#000000" d="M 280 226 L 290 216 L 1263 216 L 1253 226 L 280 226" stroke-miterlimit="10"/></g><g transform="translate(-270,-206) scale(1,1)"><path fill="none" stroke="#000000" d="M 1263 216 L 1253 226 L 1253 1047 L 1263 1037 L 1263 216" stroke-miterlimit="10"/></g><g transform="translate(-270,-206) scale(1,1)"><g><path fill="none" stroke="none"/><text fill="#000000" stroke="none" font-family="Arial" font-size="16px" font-style="normal" font-weight="bold" text-decoration="none" x="756.32421875" y="248.5">api</text></g></g><g transform="translate(-270,-206) scale(1,1)"><path fill="#C0C0C0" stroke="none" d="M 942.133154296875 444 L 969.573154296875 444 L 981.333154296875 455.76 L 981.333154296875 493 L 942.133154296875 493" opacity="0.2"/></g><g transform="translate(-270,-206) scale(1,1)"><path fill="#ffffff" stroke="none" d="M 935.133154296875 437 L 962.573154296875 437 L 974.333154296875 448.76 L 974.333154296875 486 L 935.133154296875 486"/></g><g transform="translate(-270,-206) scale(1,1)"><path fill="none" stroke="#000000" d="M 935.133154296875 437 L 962.573154296875 437 L 974.333154296875 448.76 L 974.333154296875 486 L 935.133154296875 486 L 935.133154296875 437" stroke-miterlimit="10"/></g><g transform="translate(-270,-206) scale(1,1)"><path fill="none" stroke="#000000" d="M 962.573154296875 437 L 962.573154296875 448.76 L 974.333154296875 448.76 L 962.573154296875 437" stroke-miterlimit="10"/></g><g transform="translate(-270,-206) scale(1,1)"><g><path fill="none" stroke="none"/><text fill="#000000" stroke="none" font-family="Arial" font-size="13px" font-style="normal" font-weight="bold" text-decoration="none" x="912.464111328125" y="505.5">composer.json</text></g></g><g transform="translate(-270,-206) scale(1,1)"><path fill="#C0C0C0" stroke="none" d="M 1092.777685546875 444 L 1120.2176855468751 444 L 1131.9776855468751 455.76 L 1131.9776855468751 493 L 1092.777685546875 493" opacity="0.2"/></g><g transform="translate(-270,-206) scale(1,1)"><path fill="#ffffff" stroke="none" d="M 1085.777685546875 437 L 1113.217685546875 437 L 1124.977685546875 448.75999999999993 L 1124.977685546875 486 L 1085.777685546875 486"/></g><g transform="translate(-270,-206) scale(1,1)"><path fill="none" stroke="#000000" d="M 1085.777685546875 437 L 1113.217685546875 437 L 1124.977685546875 448.75999999999993 L 1124.977685546875 486 L 1085.777685546875 486 L 1085.777685546875 437" stroke-miterlimit="10"/></g><g transform="translate(-270,-206) scale(1,1)"><path fill="none" stroke="#000000" d="M 1113.217685546875 437 L 1113.217685546875 448.75999999999993 L 1124.977685546875 448.75999999999993 L 1113.217685546875 437" stroke-miterlimit="10"/></g><g transform="translate(-270,-206) scale(1,1)"><g><path fill="none" stroke="none"/><text fill="#000000" stroke="none" font-family="Arial" font-size="13px" font-style="normal" font-weight="bold" text-decoration="none" x="1063.4736328125" y="505.5">composer.lock</text></g></g><g transform="translate(-270,-206) scale(1,1)"><path fill="#C0C0C0" stroke="none" d="M 941.7291015625 558 L 969.1691015625 558 L 980.9291015625 569.76 L 980.9291015625 607 L 941.7291015625 607" opacity="0.2"/></g><g transform="translate(-270,-206) scale(1,1)"><path fill="#ffffff" stroke="none" d="M 934.7291015625 551 L 962.1691015625 551 L 973.9291015625 562.76 L 973.9291015625 600 L 934.7291015625 600"/></g><g transform="translate(-270,-206) scale(1,1)"><path fill="none" stroke="#000000" d="M 934.7291015625 551 L 962.1691015625 551 L 973.9291015625 562.76 L 973.9291015625 600 L 934.7291015625 600 L 934.7291015625 551" stroke-miterlimit="10"/></g><g transform="translate(-270,-206) scale(1,1)"><path fill="none" stroke="#000000" d="M 962.1691015625 551 L 962.1691015625 562.76 L 973.9291015625 562.76 L 962.1691015625 551" stroke-miterlimit="10"/></g><g transform="translate(-270,-206) scale(1,1)"><g><path fill="none" stroke="none"/><text fill="#000000" stroke="none" font-family="Arial" font-size="13px" font-style="normal" font-weight="bold" text-decoration="none" x="921.089599609375" y="619.5">phpunit.xml</text></g></g><g transform="translate(-270,-206) scale(1,1)"><path fill="#C0C0C0" stroke="none" d="M 903 777 L 1180 777 L 1180 990 L 903 990" opacity="0.2"/></g><g transform="translate(-270,-206) scale(1,1)"><path fill="#C0C0C0" stroke="none" d="M 903 777 L 913 767 L 1190 767 L 1180 777" opacity="0.2"/></g><g transform="translate(-270,-206) scale(1,1)"><path fill="#C0C0C0" stroke="none" d="M 1190 767 L 1180 777 L 1180 990 L 1190 980" opacity="0.2"/></g><g transform="translate(-270,-206) scale(1,1)"><path fill="#ffffff" stroke="none" d="M 896 770 L 1173 770 L 1173 983 L 896 983"/></g><g transform="translate(-270,-206) scale(1,1)"><path fill="#ffffff" stroke="none" d="M 896 770 L 906 760 L 1183 760 L 1173 770"/></g><g transform="translate(-270,-206) scale(1,1)"><path fill="#ffffff" stroke="none" d="M 1183 760 L 1173 770 L 1173 983 L 1183 973"/></g><g transform="translate(-270,-206) scale(1,1)"><path fill="none" stroke="#000000" d="M 896 770 L 1173 770 L 1173 983 L 896 983 L 896 770" stroke-miterlimit="10"/></g><g transform="translate(-270,-206) scale(1,1)"><path fill="none" stroke="#000000" d="M 896 770 L 906 760 L 1183 760 L 1173 770 L 896 770" stroke-miterlimit="10"/></g><g transform="translate(-270,-206) scale(1,1)"><path fill="none" stroke="#000000" d="M 1183 760 L 1173 770 L 1173 983 L 1183 973 L 1183 760" stroke-miterlimit="10"/></g><g transform="translate(-270,-206) scale(1,1)"><g><path fill="none" stroke="none"/><text fill="#000000" stroke="none" font-family="Arial" font-size="13px" font-style="normal" font-weight="bold" text-decoration="none" x="1023.075927734375" y="789.5">web</text></g></g><g transform="translate(-270,-206) scale(1,1)"><path fill="#C0C0C0" stroke="none" d="M 941.530859375 863 L 968.970859375 863 L 980.730859375 874.76 L 980.730859375 912 L 941.530859375 912" opacity="0.2"/></g><g transform="translate(-270,-206) scale(1,1)"><path fill="#ffffff" stroke="none" d="M 934.530859375 856 L 961.970859375 856 L 973.730859375 867.76 L 973.730859375 905 L 934.530859375 905"/></g><g transform="translate(-270,-206) scale(1,1)"><path fill="none" stroke="#000000" d="M 934.530859375 856 L 961.970859375 856 L 973.730859375 867.76 L 973.730859375 905 L 934.530859375 905 L 934.530859375 856" stroke-miterlimit="10"/></g><g transform="translate(-270,-206) scale(1,1)"><path fill="none" stroke="#000000" d="M 961.970859375 856 L 961.970859375 867.76 L 973.730859375 867.76 L 961.970859375 856" stroke-miterlimit="10"/></g><g transform="translate(-270,-206) scale(1,1)"><g><path fill="none" stroke="none"/><text fill="#000000" stroke="none" font-family="Arial" font-size="13px" font-style="normal" font-weight="bold" text-decoration="none" x="926.674072265625" y="924.5">.htaccess</text></g></g><g transform="translate(-270,-206) scale(1,1)"><path fill="#C0C0C0" stroke="none" d="M 1092.594091796875 863 L 1120.0340917968751 863 L 1131.7940917968751 874.76 L 1131.7940917968751 912 L 1092.594091796875 912" opacity="0.2"/></g><g transform="translate(-270,-206) scale(1,1)"><path fill="#ffffff" stroke="none" d="M 1085.594091796875 856 L 1113.034091796875 856 L 1124.794091796875 867.76 L 1124.794091796875 905 L 1085.594091796875 905"/></g><g transform="translate(-270,-206) scale(1,1)"><path fill="none" stroke="#000000" d="M 1085.594091796875 856 L 1113.034091796875 856 L 1124.794091796875 867.76 L 1124.794091796875 905 L 1085.594091796875 905 L 1085.594091796875 856" stroke-miterlimit="10"/></g><g transform="translate(-270,-206) scale(1,1)"><path fill="none" stroke="#000000" d="M 1113.034091796875 856 L 1113.034091796875 867.76 L 1124.794091796875 867.76 L 1113.034091796875 856" stroke-miterlimit="10"/></g><g transform="translate(-270,-206) scale(1,1)"><g><path fill="none" stroke="none"/><text fill="#000000" stroke="none" font-family="Arial" font-size="13px" font-style="normal" font-weight="bold" text-decoration="none" x="1077.004150390625" y="924.5">index.php</text></g></g><g transform="translate(-270,-206) scale(1,1)"><path fill="#C0C0C0" stroke="none" d="M 367 777 L 804 777 L 804 998 L 367 998" opacity="0.2"/></g><g transform="translate(-270,-206) scale(1,1)"><path fill="#C0C0C0" stroke="none" d="M 367 777 L 377 767 L 814 767 L 804 777" opacity="0.2"/></g><g transform="translate(-270,-206) scale(1,1)"><path fill="#C0C0C0" stroke="none" d="M 814 767 L 804 777 L 804 998 L 814 988" opacity="0.2"/></g><g transform="translate(-270,-206) scale(1,1)"><path fill="#ffffff" stroke="none" d="M 360 770 L 797 770 L 797 991 L 360 991"/></g><g transform="translate(-270,-206) scale(1,1)"><path fill="#ffffff" stroke="none" d="M 360 770 L 370 760 L 807 760 L 797 770"/></g><g transform="translate(-270,-206) scale(1,1)"><path fill="#ffffff" stroke="none" d="M 807 760 L 797 770 L 797 991 L 807 981"/></g><g transform="translate(-270,-206) scale(1,1)"><path fill="none" stroke="#000000" d="M 360 770 L 797 770 L 797 991 L 360 991 L 360 770" stroke-miterlimit="10"/></g><g transform="translate(-270,-206) scale(1,1)"><path fill="none" stroke="#000000" d="M 360 770 L 370 760 L 807 760 L 797 770 L 360 770" stroke-miterlimit="10"/></g><g transform="translate(-270,-206) scale(1,1)"><path fill="none" stroke="#000000" d="M 807 760 L 797 770 L 797 991 L 807 981 L 807 760" stroke-miterlimit="10"/></g><g transform="translate(-270,-206) scale(1,1)"><g><path fill="none" stroke="none"/><text fill="#000000" stroke="none" font-family="Arial" font-size="13px" font-style="normal" font-weight="bold" text-decoration="none" x="568.523193359375" y="789.5">test</text></g></g><g transform="translate(-270,-206) scale(1,1)"><path fill="#C0C0C0" stroke="none" d="M 583 833 L 739 833 L 739 965 L 583 965" opacity="0.2"/></g><g transform="translate(-270,-206) scale(1,1)"><path fill="#C0C0C0" stroke="none" d="M 583 833 L 593 823 L 749 823 L 739 833" opacity="0.2"/></g><g transform="translate(-270,-206) scale(1,1)"><path fill="#C0C0C0" stroke="none" d="M 749 823 L 739 833 L 739 965 L 749 955" opacity="0.2"/></g><g transform="translate(-270,-206) scale(1,1)"><path fill="#ffffff" stroke="none" d="M 576 826 L 732 826 L 732 958 L 576 958"/></g><g transform="translate(-270,-206) scale(1,1)"><path fill="#ffffff" stroke="none" d="M 576 826 L 586 816 L 742 816 L 732 826"/></g><g transform="translate(-270,-206) scale(1,1)"><path fill="#ffffff" stroke="none" d="M 742 816 L 732 826 L 732 958 L 742 948"/></g><g transform="translate(-270,-206) scale(1,1)"><path fill="none" stroke="#000000" d="M 576 826 L 732 826 L 732 958 L 576 958 L 576 826" stroke-miterlimit="10"/></g><g transform="translate(-270,-206) scale(1,1)"><path fill="none" stroke="#000000" d="M 576 826 L 586 816 L 742 816 L 732 826 L 576 826" stroke-miterlimit="10"/></g><g transform="translate(-270,-206) scale(1,1)"><path fill="none" stroke="#000000" d="M 742 816 L 732 826 L 732 958 L 742 948 L 742 816" stroke-miterlimit="10"/></g><g transform="translate(-270,-206) scale(1,1)"><g><path fill="none" stroke="none"/><text fill="#000000" stroke="none" font-family="Arial" font-size="13px" font-style="normal" font-weight="bold" text-decoration="none" x="644.023193359375" y="845.5">API</text></g></g><g transform="translate(-270,-206) scale(1,1)"><path fill="#C0C0C0" stroke="none" d="M 642.2681640625 879 L 669.7081640625 879 L 681.4681640625 890.76 L 681.4681640625 928 L 642.2681640625 928" opacity="0.2"/></g><g transform="translate(-270,-206) scale(1,1)"><path fill="#ffffff" stroke="none" d="M 635.2681640625 872 L 662.7081640625 872 L 674.4681640625 883.76 L 674.4681640625 921 L 635.2681640625 921"/></g><g transform="translate(-270,-206) scale(1,1)"><path fill="none" stroke="#000000" d="M 635.2681640625 872 L 662.7081640625 872 L 674.4681640625 883.76 L 674.4681640625 921 L 635.2681640625 921 L 635.2681640625 872" stroke-miterlimit="10"/></g><g transform="translate(-270,-206) scale(1,1)"><path fill="none" stroke="#000000" d="M 662.7081640625 872 L 662.7081640625 883.76 L 674.4681640625 883.76 L 662.7081640625 872" stroke-miterlimit="10"/></g><g transform="translate(-270,-206) scale(1,1)"><g><path fill="none" stroke="none"/><text fill="#000000" stroke="none" font-family="Arial" font-size="13px" font-style="normal" font-weight="bold" text-decoration="none" x="630.302734375" y="940.5">DogTest</text></g></g><g transform="translate(-270,-206) scale(1,1)"><path fill="#C0C0C0" stroke="none" d="M 447.994970703125 879 L 475.434970703125 879 L 487.19497070312497 890.76 L 487.19497070312497 928 L 447.994970703125 928" opacity="0.2"/></g><g transform="translate(-270,-206) scale(1,1)"><path fill="#ffffff" stroke="none" d="M 440.994970703125 872 L 468.43497070312503 872 L 480.194970703125 883.76 L 480.194970703125 921 L 440.994970703125 921"/></g><g transform="translate(-270,-206) scale(1,1)"><path fill="none" stroke="#000000" d="M 440.994970703125 872 L 468.43497070312503 872 L 480.194970703125 883.76 L 480.194970703125 921 L 440.994970703125 921 L 440.994970703125 872" stroke-miterlimit="10"/></g><g transform="translate(-270,-206) scale(1,1)"><path fill="none" stroke="#000000" d="M 468.43497070312503 872 L 468.43497070312503 883.76 L 480.194970703125 883.76 L 468.43497070312503 872" stroke-miterlimit="10"/></g><g transform="translate(-270,-206) scale(1,1)"><g><path fill="none" stroke="none"/><text fill="#000000" stroke="none" font-family="Arial" font-size="13px" font-style="normal" font-weight="bold" text-decoration="none" x="422.299560546875" y="940.5">ManagerTest</text></g></g><g transform="translate(-270,-206) scale(1,1)"><path fill="#C0C0C0" stroke="none" d="M 367 329 L 812 329 L 812 702 L 367 702" opacity="0.2"/></g><g transform="translate(-270,-206) scale(1,1)"><path fill="#C0C0C0" stroke="none" d="M 367 329 L 377 319 L 822 319 L 812 329" opacity="0.2"/></g><g transform="translate(-270,-206) scale(1,1)"><path fill="#C0C0C0" stroke="none" d="M 822 319 L 812 329 L 812 702 L 822 692" opacity="0.2"/></g><g transform="translate(-270,-206) scale(1,1)"><path fill="#ffffff" stroke="none" d="M 360 322 L 805 322 L 805 695 L 360 695"/></g><g transform="translate(-270,-206) scale(1,1)"><path fill="#ffffff" stroke="none" d="M 360 322 L 370 312 L 815 312 L 805 322"/></g><g transform="translate(-270,-206) scale(1,1)"><path fill="#ffffff" stroke="none" d="M 815 312 L 805 322 L 805 695 L 815 685"/></g><g transform="translate(-270,-206) scale(1,1)"><path fill="none" stroke="#000000" d="M 360 322 L 805 322 L 805 695 L 360 695 L 360 322" stroke-miterlimit="10"/></g><g transform="translate(-270,-206) scale(1,1)"><path fill="none" stroke="#000000" d="M 360 322 L 370 312 L 815 312 L 805 322 L 360 322" stroke-miterlimit="10"/></g><g transform="translate(-270,-206) scale(1,1)"><path fill="none" stroke="#000000" d="M 815 312 L 805 322 L 805 695 L 815 685 L 815 312" stroke-miterlimit="10"/></g><g transform="translate(-270,-206) scale(1,1)"><g><path fill="none" stroke="none"/><text fill="#000000" stroke="none" font-family="Arial" font-size="13px" font-style="normal" font-weight="bold" text-decoration="none" x="574.33544921875" y="341.5">src</text></g></g><g transform="translate(-270,-206) scale(1,1)"><path fill="#C0C0C0" stroke="none" d="M 1081 575 L 1132.341796875 575 L 1132.341796875 624 L 1081 624" opacity="0.2"/></g><g transform="translate(-270,-206) scale(1,1)"><path fill="#C0C0C0" stroke="none" d="M 1081 575 L 1091 565 L 1142.341796875 565 L 1132.341796875 575" opacity="0.2"/></g><g transform="translate(-270,-206) scale(1,1)"><path fill="#C0C0C0" stroke="none" d="M 1142.341796875 565 L 1132.341796875 575 L 1132.341796875 624 L 1142.341796875 614" opacity="0.2"/></g><g transform="translate(-270,-206) scale(1,1)"><path fill="#ffffff" stroke="none" d="M 1074 568 L 1125.341796875 568 L 1125.341796875 617 L 1074 617"/></g><g transform="translate(-270,-206) scale(1,1)"><path fill="#ffffff" stroke="none" d="M 1074 568 L 1084 558 L 1135.341796875 558 L 1125.341796875 568"/></g><g transform="translate(-270,-206) scale(1,1)"><path fill="#ffffff" stroke="none" d="M 1135.341796875 558 L 1125.341796875 568 L 1125.341796875 617 L 1135.341796875 607"/></g><g transform="translate(-270,-206) scale(1,1)"><path fill="none" stroke="#000000" d="M 1074 568 L 1125.341796875 568 L 1125.341796875 617 L 1074 617 L 1074 568" stroke-miterlimit="10"/></g><g transform="translate(-270,-206) scale(1,1)"><path fill="none" stroke="#000000" d="M 1074 568 L 1084 558 L 1135.341796875 558 L 1125.341796875 568 L 1074 568" stroke-miterlimit="10"/></g><g transform="translate(-270,-206) scale(1,1)"><path fill="none" stroke="#000000" d="M 1135.341796875 558 L 1125.341796875 568 L 1125.341796875 617 L 1135.341796875 607 L 1135.341796875 558" stroke-miterlimit="10"/></g><g transform="translate(-270,-206) scale(1,1)"><g><path fill="none" stroke="none"/><text fill="#000000" stroke="none" font-family="Arial" font-size="13px" font-style="normal" font-weight="bold" text-decoration="none" x="1080.29638671875" y="587.5">vendor</text></g></g><g transform="translate(-270,-206) scale(1,1)"><path fill="#C0C0C0" stroke="none" d="M 582 401 L 755 401 L 755 662 L 582 662" opacity="0.2"/></g><g transform="translate(-270,-206) scale(1,1)"><path fill="#C0C0C0" stroke="none" d="M 582 401 L 592 391 L 765 391 L 755 401" opacity="0.2"/></g><g transform="translate(-270,-206) scale(1,1)"><path fill="#C0C0C0" stroke="none" d="M 765 391 L 755 401 L 755 662 L 765 652" opacity="0.2"/></g><g transform="translate(-270,-206) scale(1,1)"><path fill="#ffffff" stroke="none" d="M 575 394 L 748 394 L 748 655 L 575 655"/></g><g transform="translate(-270,-206) scale(1,1)"><path fill="#ffffff" stroke="none" d="M 575 394 L 585 384 L 758 384 L 748 394"/></g><g transform="translate(-270,-206) scale(1,1)"><path fill="#ffffff" stroke="none" d="M 758 384 L 748 394 L 748 655 L 758 645"/></g><g transform="translate(-270,-206) scale(1,1)"><path fill="none" stroke="#000000" d="M 575 394 L 748 394 L 748 655 L 575 655 L 575 394" stroke-miterlimit="10"/></g><g transform="translate(-270,-206) scale(1,1)"><path fill="none" stroke="#000000" d="M 575 394 L 585 384 L 758 384 L 748 394 L 575 394" stroke-miterlimit="10"/></g><g transform="translate(-270,-206) scale(1,1)"><path fill="none" stroke="#000000" d="M 758 384 L 748 394 L 748 655 L 758 645 L 758 384" stroke-miterlimit="10"/></g><g transform="translate(-270,-206) scale(1,1)"><g><path fill="none" stroke="none"/><text fill="#000000" stroke="none" font-family="Arial" font-size="13px" font-style="normal" font-weight="bold" text-decoration="none" x="651.523193359375" y="413.5">API</text></g></g><g transform="translate(-270,-206) scale(1,1)"><path fill="#C0C0C0" stroke="none" d="M 642.2681640625 558 L 669.7081640625 558 L 681.4681640625 569.76 L 681.4681640625 607 L 642.2681640625 607" opacity="0.2"/></g><g transform="translate(-270,-206) scale(1,1)"><path fill="#ffffff" stroke="none" d="M 635.2681640625 551 L 662.7081640625 551 L 674.4681640625 562.76 L 674.4681640625 600 L 635.2681640625 600"/></g><g transform="translate(-270,-206) scale(1,1)"><path fill="none" stroke="#000000" d="M 635.2681640625 551 L 662.7081640625 551 L 674.4681640625 562.76 L 674.4681640625 600 L 635.2681640625 600 L 635.2681640625 551" stroke-miterlimit="10"/></g><g transform="translate(-270,-206) scale(1,1)"><path fill="none" stroke="#000000" d="M 662.7081640625 551 L 662.7081640625 562.76 L 674.4681640625 562.76 L 662.7081640625 551" stroke-miterlimit="10"/></g><g transform="translate(-270,-206) scale(1,1)"><g><path fill="none" stroke="none"/><text fill="#000000" stroke="none" font-family="Arial" font-size="13px" font-style="normal" font-weight="bold" text-decoration="none" x="630.293212890625" y="619.5">Dog.php</text></g></g><g transform="translate(-270,-206) scale(1,1)"><path fill="#C0C0C0" stroke="none" d="M 641.508642578125 444 L 668.948642578125 444 L 680.708642578125 455.76 L 680.708642578125 493 L 641.508642578125 493" opacity="0.2"/></g><g transform="translate(-270,-206) scale(1,1)"><path fill="#ffffff" stroke="none" d="M 634.508642578125 437 L 661.948642578125 437 L 673.708642578125 448.76 L 673.708642578125 486 L 634.508642578125 486"/></g><g transform="translate(-270,-206) scale(1,1)"><path fill="none" stroke="#000000" d="M 634.508642578125 437 L 661.948642578125 437 L 673.708642578125 448.76 L 673.708642578125 486 L 634.508642578125 486 L 634.508642578125 437" stroke-miterlimit="10"/></g><g transform="translate(-270,-206) scale(1,1)"><path fill="none" stroke="#000000" d="M 661.948642578125 437 L 661.948642578125 448.76 L 673.708642578125 448.76 L 661.948642578125 437" stroke-miterlimit="10"/></g><g transform="translate(-270,-206) scale(1,1)"><g><path fill="none" stroke="none"/><text fill="#000000" stroke="none" font-family="Arial" font-size="13px" font-style="normal" font-weight="bold" text-decoration="none" x="591.235107421875" y="505.5">AbstractEndPoint.php</text></g></g><g transform="translate(-270,-206) scale(1,1)"><path fill="#C0C0C0" stroke="none" d="M 447.56455078125 444 L 475.00455078125 444 L 486.76455078124997 455.76 L 486.76455078124997 493 L 447.56455078125 493" opacity="0.2"/></g><g transform="translate(-270,-206) scale(1,1)"><path fill="#ffffff" stroke="none" d="M 440.56455078125 437 L 468.00455078125003 437 L 479.76455078125 448.76 L 479.76455078125 486 L 440.56455078125 486"/></g><g transform="translate(-270,-206) scale(1,1)"><path fill="none" stroke="#000000" d="M 440.56455078125 437 L 468.00455078125003 437 L 479.76455078125 448.76 L 479.76455078125 486 L 440.56455078125 486 L 440.56455078125 437" stroke-miterlimit="10"/></g><g transform="translate(-270,-206) scale(1,1)"><path fill="none" stroke="#000000" d="M 468.00455078125003 437 L 468.00455078125003 448.76 L 479.76455078125 448.76 L 468.00455078125003 437" stroke-miterlimit="10"/></g><g transform="translate(-270,-206) scale(1,1)"><g><path fill="none" stroke="none"/><text fill="#000000" stroke="none" font-family="Arial" font-size="13px" font-style="normal" font-weight="bold" text-decoration="none" x="429.089599609375" y="505.5">config.json</text></g></g><g transform="translate(-270,-206) scale(1,1)"><path fill="#C0C0C0" stroke="none" d="M 448.347265625 558 L 475.787265625 558 L 487.54726562499997 569.76 L 487.54726562499997 607 L 448.347265625 607" opacity="0.2"/></g><g transform="translate(-270,-206) scale(1,1)"><path fill="#ffffff" stroke="none" d="M 441.347265625 551 L 468.78726562500003 551 L 480.547265625 562.76 L 480.547265625 600 L 441.347265625 600"/></g><g transform="translate(-270,-206) scale(1,1)"><path fill="none" stroke="#000000" d="M 441.347265625 551 L 468.78726562500003 551 L 480.547265625 562.76 L 480.547265625 600 L 441.347265625 600 L 441.347265625 551" stroke-miterlimit="10"/></g><g transform="translate(-270,-206) scale(1,1)"><path fill="none" stroke="#000000" d="M 468.78726562500003 551 L 468.78726562500003 562.76 L 480.547265625 562.76 L 468.78726562500003 551" stroke-miterlimit="10"/></g><g transform="translate(-270,-206) scale(1,1)"><g><path fill="none" stroke="none"/><text fill="#000000" stroke="none" font-family="Arial" font-size="13px" font-style="normal" font-weight="bold" text-decoration="none" x="422.642333984375" y="619.5">Manager.php</text></g></g><g transform="translate(-270,-206) scale(1,1)"><path fill="none" stroke="#000000" d="M 1104 760 L 1104 618" stroke-miterlimit="10" stroke-dasharray="3"/></g><g transform="translate(-270,-206) scale(1,1)"><path fill="none" stroke="#000000" d="M 1108.2095177560159 628.1626748576241 L 1104 618 L 1099.7904822439841 628.1626748576241" stroke-miterlimit="10"/></g><g transform="translate(-270,-206) scale(1,1)"><path fill="none" stroke="#000000" d="M 1184 760 L 1184 312 L 816 312" stroke-miterlimit="10" stroke-dasharray="3"/></g><g transform="translate(-270,-206) scale(1,1)"><path fill="none" stroke="#000000" d="M 826.1626748576241 307.790482243984 L 816 312 L 826.1626748576241 316.209517756016" stroke-miterlimit="10"/></g><g transform="translate(-270,-206) scale(1,1)"><path fill="none" stroke="#000000" d="M 913 584 L 816 584" stroke-miterlimit="10" stroke-dasharray="3"/></g><g transform="translate(-270,-206) scale(1,1)"><path fill="none" stroke="#000000" d="M 826.1626748576241 579.790482243984 L 816 584 L 826.1626748576241 588.209517756016" stroke-miterlimit="10"/></g><g transform="translate(-270,-206) scale(1,1)"><path fill="none" stroke="#000000" d="M 913 592 L 832 592 L 832 712 L 592 712 L 592 760" stroke-miterlimit="10" stroke-dasharray="3"/></g><g transform="translate(-270,-206) scale(1,1)"><path fill="none" stroke="#000000" d="M 587.790482243984 749.8373251423759 L 592 760 L 596.209517756016 749.8373251423759" stroke-miterlimit="10"/></g><g transform="translate(-270,-206) scale(1,1)"><path fill="none" stroke="#000000" d="M 996 584 L 1074 584" stroke-miterlimit="10" stroke-dasharray="3"/></g><g transform="translate(-270,-206) scale(1,1)"><path fill="none" stroke="#000000" d="M 1063.837325142376 588.209517756016 L 1074 584 L 1063.837325142376 579.790482243984" stroke-miterlimit="10"/></g><g transform="translate(-270,-206) scale(1,1)"><path fill="none" stroke="#000000" d="M 576 760 L 576 696" stroke-miterlimit="10" stroke-dasharray="3"/></g><g transform="translate(-270,-206) scale(1,1)"><path fill="none" stroke="#000000" d="M 580.209517756016 706.1626748576241 L 576 696 L 571.790482243984 706.1626748576241" stroke-miterlimit="10"/></g><g transform="translate(-270,-206) scale(1,1)"><path fill="none" stroke="#000000" d="M 808 760 L 808 736 L 1096 736 L 1096 618" stroke-miterlimit="10" stroke-dasharray="3"/></g><g transform="translate(-270,-206) scale(1,1)"><path fill="none" stroke="#000000" d="M 1100.2095177560159 628.1626748576241 L 1096 618 L 1091.7904822439841 628.1626748576241" stroke-miterlimit="10"/></g><g transform="translate(-270,-206) scale(1,1)"><path fill="none" stroke="#000000" d="M 456 551 L 456 511" stroke-miterlimit="10" stroke-dasharray="3"/></g><g transform="translate(-270,-206) scale(1,1)"><path fill="none" stroke="#000000" d="M 460.209517756016 521.1626748576241 L 456 511 L 451.790482243984 521.1626748576241" stroke-miterlimit="10"/></g><g transform="translate(-270,-206) scale(1,1)"><path fill="none" stroke="#000000" d="M 624 576 L 506 576" stroke-miterlimit="10" stroke-dasharray="3"/></g><g transform="translate(-270,-206) scale(1,1)"><path fill="none" stroke="#000000" d="M 516.1626748576241 571.790482243984 L 506 576 L 516.1626748576241 580.209517756016" stroke-miterlimit="10"/></g><g transform="translate(-270,-206) scale(1,1)"><path fill="none" stroke="#000000" d="M 648 551 L 648 511" stroke-miterlimit="10" stroke-dasharray="3"/></g><g transform="translate(-270,-206) scale(1,1)"><path fill="none" stroke="#000000" d="M 652.209517756016 521.1626748576241 L 648 511 L 643.790482243984 521.1626748576241" stroke-miterlimit="10"/></g></g></svg>