<svg version="1.1" xmlns="http://www.w3.org/2000/svg" xmlns:xlink="http://www.w3.org/1999/xlink" width="676" height="508"><defs/><g><g transform="translate(-422,-510) scale(1,1)"><rect fill="#C0C0C0" stroke="none" x="439" y="527" width="262.4" height="15" opacity="0.2"/></g><g transform="translate(-422,-510) scale(1,1)"><rect fill="#C0C0C0" stroke="none" x="439" y="541" width="656" height="474" opacity="0.2"/></g><g transform="translate(-422,-510) scale(1,1)"><rect fill="#ffffff" stroke="none" x="432" y="535" width="656" height="473"/></g><g transform="translate(-422,-510) scale(1,1)"><path fill="none" stroke="#000000" d="M 432 535 L 1088 535 L 1088 1008 L 432 1008 L 432 535 Z Z" stroke-miterlimit="10"/></g><g transform="translate(-422,-510) scale(1,1)"><rect fill="#ffffff" stroke="none" x="432" y="520" width="262.4" height="15"/></g><g transform="translate(-422,-510) scale(1,1)"><path fill="none" stroke="#000000" d="M 432 520 L 694.4 520 L 694.4 535 L 432 535 L 432 520 Z Z" stroke-miterlimit="10"/></g><g transform="translate(-422,-510) scale(1,1)"><rect fill="#ffffff" stroke="none" x="432" y="534" width="656" height="474"/></g><g transform="translate(-422,-510) scale(1,1)"><path fill="none" stroke="#000000" d="M 432 534 L 1088 534 L 1088 1008 L 432 1008 L 432 534 Z Z" stroke-miterlimit="10"/></g><g transform="translate(-422,-510) scale(1,1)"><g><path fill="none" stroke="none"/><text fill="#000000" stroke="none" font-family="Arial" font-size="13px" font-style="normal" font-weight="bold" text-decoration="none" x="735.431396484375" y="554.5">MapDog</text></g></g><g transform="translate(-422,-510) scale(1,1)"><rect fill="#C0C0C0" stroke="none" x="511" y="727" width="150.9970703125" height="115" opacity="0.2"/></g><g transform="translate(-422,-510) scale(1,1)"><rect fill="#ffffff" stroke="none" x="504" y="720" width="150.9970703125" height="115"/></g><g transform="translate(-422,-510) scale(1,1)"><path fill="none" stroke="#000000" d="M 504 720 L 654.9970703125 720 L 654.9970703125 835 L 504 835 L 504 720 Z Z" stroke-miterlimit="10"/></g><g transform="translate(-422,-510) scale(1,1)"><path fill="none" stroke="#000000" d="M 504 745 L 654.9970703125 745" stroke-miterlimit="10"/></g><g transform="translate(-422,-510) scale(1,1)"><path fill="none" stroke="#000000" d="M 504 798 L 654.9970703125 798" stroke-miterlimit="10"/></g><g transform="translate(-422,-510) scale(1,1)"><g><path fill="none" stroke="none"/><text fill="#000000" stroke="none" font-family="Arial" font-size="13px" font-style="normal" font-weight="bold" text-decoration="none" x="553.844482421875" y="739.5">Manager</text></g></g><g transform="translate(-422,-510) scale(1,1)"><g><path fill="none" stroke="none"/><text fill="#000000" stroke="none" font-family="Arial" font-size="13px" font-style="normal" font-weight="normal" text-decoration="none" x="509" y="762.5">-instance</text><path fill="none" stroke="#000000" d="M 509 762.5 L 561.7490234375 762.5" stroke-miterlimit="10"/></g></g><g transform="translate(-422,-510) scale(1,1)"><g><path fill="none" stroke="none"/><text fill="#000000" stroke="none" font-family="Arial" font-size="13px" font-style="normal" font-weight="normal" text-decoration="none" x="509" y="777.5">-config</text></g></g><g transform="translate(-422,-510) scale(1,1)"><g><path fill="none" stroke="none"/><text fill="#000000" stroke="none" font-family="Arial" font-size="13px" font-style="normal" font-weight="normal" text-decoration="none" x="509" y="792.5">-dbh</text></g></g><g transform="translate(-422,-510) scale(1,1)"><g><path fill="none" stroke="none"/><text fill="#000000" stroke="none" font-family="Arial" font-size="13px" font-style="normal" font-weight="normal" text-decoration="none" x="509" y="815.5">-Manager()</text></g></g><g transform="translate(-422,-510) scale(1,1)"><g><path fill="none" stroke="none"/><text fill="#000000" stroke="none" font-family="Arial" font-size="13px" font-style="normal" font-weight="normal" text-decoration="none" x="509" y="830.5">+getInstance(): Manager</text><path fill="none" stroke="#000000" d="M 509 830.5 L 650.9970703125 830.5" stroke-miterlimit="10"/></g></g><g transform="translate(-422,-510) scale(1,1)"><rect fill="#C0C0C0" stroke="none" x="727" y="607" width="118.39999999999998" height="15" opacity="0.2"/></g><g transform="translate(-422,-510) scale(1,1)"><rect fill="#C0C0C0" stroke="none" x="727" y="621" width="296" height="346" opacity="0.2"/></g><g transform="translate(-422,-510) scale(1,1)"><rect fill="#ffffff" stroke="none" x="720" y="615" width="296" height="345"/></g><g transform="translate(-422,-510) scale(1,1)"><path fill="none" stroke="#000000" d="M 720 615 L 1016 615 L 1016 960 L 720 960 L 720 615 Z Z" stroke-miterlimit="10"/></g><g transform="translate(-422,-510) scale(1,1)"><rect fill="#ffffff" stroke="none" x="720" y="600" width="118.39999999999998" height="15"/></g><g transform="translate(-422,-510) scale(1,1)"><path fill="none" stroke="#000000" d="M 720 600 L 838.4 600 L 838.4 615 L 720 615 L 720 600 Z Z" stroke-miterlimit="10"/></g><g transform="translate(-422,-510) scale(1,1)"><rect fill="#ffffff" stroke="none" x="720" y="614" width="296" height="346"/></g><g transform="translate(-422,-510) scale(1,1)"><path fill="none" stroke="#000000" d="M 720 614 L 1016 614 L 1016 960 L 720 960 L 720 614 Z Z" stroke-miterlimit="10"/></g><g transform="translate(-422,-510) scale(1,1)"><g><path fill="none" stroke="none"/><text fill="#000000" stroke="none" font-family="Arial" font-size="13px" font-style="normal" font-weight="bold" text-decoration="none" x="857.523193359375" y="634.5">API</text></g></g><g transform="translate(-422,-510) scale(1,1)"><rect fill="#C0C0C0" stroke="none" x="775" y="671" width="200.1025390625" height="100" opacity="0.2"/></g><g transform="translate(-422,-510) scale(1,1)"><rect fill="#ffffff" stroke="none" x="768" y="664" width="200.1025390625" height="100"/></g><g transform="translate(-422,-510) scale(1,1)"><path fill="none" stroke="#000000" d="M 768 664 L 968.1025390625 664 L 968.1025390625 764 L 768 764 L 768 664 Z Z" stroke-miterlimit="10"/></g><g transform="translate(-422,-510) scale(1,1)"><path fill="none" stroke="#000000" d="M 768 689 L 968.1025390625 689" stroke-miterlimit="10"/></g><g transform="translate(-422,-510) scale(1,1)"><path fill="none" stroke="#000000" d="M 768 712 L 968.1025390625 712" stroke-miterlimit="10"/></g><g transform="translate(-422,-510) scale(1,1)"><g><path fill="none" stroke="none"/><text fill="#000000" stroke="none" font-family="Arial" font-size="13px" font-style="normal" font-weight="bold" text-decoration="none" x="817.82861328125" y="683.5">AbstractEndPoint</text></g></g><g transform="translate(-422,-510) scale(1,1)"><g><path fill="none" stroke="none"/><text fill="#000000" stroke="none" font-family="Arial" font-size="13px" font-style="normal" font-weight="normal" text-decoration="none" x="773" y="706.5">#json</text></g></g><g transform="translate(-422,-510) scale(1,1)"><g><path fill="none" stroke="none"/><text fill="#000000" stroke="none" font-family="Arial" font-size="13px" font-style="normal" font-weight="normal" text-decoration="none" x="773" y="729.5">+Dog()</text></g></g><g transform="translate(-422,-510) scale(1,1)"><g><path fill="none" stroke="none"/><text fill="#000000" stroke="none" font-family="Arial" font-size="13px" font-style="normal" font-weight="normal" text-decoration="none" x="773" y="744.5">+__call(name: string, args: array)</text></g></g><g transform="translate(-422,-510) scale(1,1)"><g><path fill="none" stroke="none"/><text fill="#000000" stroke="none" font-family="Arial" font-size="13px" font-style="normal" font-weight="normal" text-decoration="none" x="773" y="759.5">+render(): string</text></g></g><g transform="translate(-422,-510) scale(1,1)"><path fill="none" stroke="#000000" d="M 864 840 L 864 764" stroke-miterlimit="10"/></g><g transform="translate(-422,-510) scale(1,1)"><path fill="#FFFFFF" stroke="none" d="M 872.419035512032 784.3253497152483 L 864 764 L 855.580964487968 784.3253497152483"/></g><g transform="translate(-422,-510) scale(1,1)"><path fill="none" stroke="#000000" d="M 872.419035512032 784.3253497152483 L 864 764 L 855.580964487968 784.3253497152483 L 872.419035512032 784.3253497152483" stroke-miterlimit="10"/></g><g transform="translate(-422,-510) scale(1,1)"><rect fill="#C0C0C0" stroke="none" x="775" y="847" width="200" height="87" opacity="0.2"/></g><g transform="translate(-422,-510) scale(1,1)"><rect fill="#ffffff" stroke="none" x="768" y="840" width="200" height="87"/></g><g transform="translate(-422,-510) scale(1,1)"><path fill="none" stroke="#000000" d="M 768 840 L 968 840 L 968 927 L 768 927 L 768 840 Z Z" stroke-miterlimit="10"/></g><g transform="translate(-422,-510) scale(1,1)"><path fill="none" stroke="#000000" d="M 768 865 L 968 865" stroke-miterlimit="10"/></g><g transform="translate(-422,-510) scale(1,1)"><path fill="none" stroke="#000000" d="M 768 875 L 968 875" stroke-miterlimit="10"/></g><g transform="translate(-422,-510) scale(1,1)"><g><path fill="none" stroke="none"/><text fill="#000000" stroke="none" font-family="Arial" font-size="13px" font-style="normal" font-weight="bold" text-decoration="none" x="856.075927734375" y="859.5">Dog</text></g></g><g transform="translate(-422,-510) scale(1,1)"><g><path fill="none" stroke="none"/><text fill="#000000" stroke="none" font-family="Arial" font-size="13px" font-style="normal" font-weight="normal" text-decoration="none" x="773" y="892.5">+get(): Dog</text></g></g><g transform="translate(-422,-510) scale(1,1)"><g><path fill="none" stroke="none"/><text fill="#000000" stroke="none" font-family="Arial" font-size="13px" font-style="normal" font-weight="normal" text-decoration="none" x="773" y="907.5">+put(): Dog</text></g></g><g transform="translate(-422,-510) scale(1,1)"><g><path fill="none" stroke="none"/><text fill="#000000" stroke="none" font-family="Arial" font-size="13px" font-style="normal" font-weight="normal" text-decoration="none" x="773" y="922.5">+post(): Dog</text></g></g><g transform="translate(-422,-510) scale(1,1)"><rect fill="#C0C0C0" stroke="none" x="520" y="607" width="60.39999999999998" height="15" opacity="0.2"/></g><g transform="translate(-422,-510) scale(1,1)"><rect fill="#C0C0C0" stroke="none" x="520" y="621" width="151" height="40" opacity="0.2"/></g><g transform="translate(-422,-510) scale(1,1)"><rect fill="#ffffff" stroke="none" x="513" y="615" width="151" height="39"/></g><g transform="translate(-422,-510) scale(1,1)"><path fill="none" stroke="#000000" d="M 513 615 L 664 615 L 664 654 L 513 654 L 513 615 Z Z" stroke-miterlimit="10"/></g><g transform="translate(-422,-510) scale(1,1)"><rect fill="#ffffff" stroke="none" x="513" y="600" width="60.39999999999998" height="15"/></g><g transform="translate(-422,-510) scale(1,1)"><path fill="none" stroke="#000000" d="M 513 600 L 573.4 600 L 573.4 615 L 513 615 L 513 600 Z Z" stroke-miterlimit="10"/></g><g transform="translate(-422,-510) scale(1,1)"><rect fill="#ffffff" stroke="none" x="513" y="614" width="151" height="40"/></g><g transform="translate(-422,-510) scale(1,1)"><path fill="none" stroke="#000000" d="M 513 614 L 664 614 L 664 654 L 513 654 L 513 614 Z Z" stroke-miterlimit="10"/></g><g transform="translate(-422,-510) scale(1,1)"><g><path fill="none" stroke="none"/><text fill="#000000" stroke="none" font-family="Arial" font-size="13px" font-style="normal" font-weight="bold" text-decoration="none" x="575.858642578125" y="634.5">Test</text></g></g><g transform="translate(-422,-510) scale(1,1)"><path fill="none" stroke="#000000" d="M 768 896 L 576 896 L 576 835" stroke-miterlimit="10" stroke-dasharray="3"/></g><g transform="translate(-422,-510) scale(1,1)"><path fill="none" stroke="#000000" d="M 580.209517756016 845.1626748576241 L 576 835 L 571.790482243984 845.1626748576241" stroke-miterlimit="10"/></g><g transform="translate(-422,-510) scale(1,1)"><path fill="none" stroke="#000000" d="M 664 632 L 720 632" stroke-miterlimit="10" stroke-dasharray="3"/></g><g transform="translate(-422,-510) scale(1,1)"><path fill="none" stroke="#000000" d="M 709.8373251423759 636.209517756016 L 720 632 L 709.8373251423758 627.790482243984" stroke-miterlimit="10"/></g><g transform="translate(-422,-510) scale(1,1)"><path fill="none" stroke="#000000" d="M 584 654 L 584 720" stroke-miterlimit="10" stroke-dasharray="3"/></g><g transform="translate(-422,-510) scale(1,1)"><path fill="none" stroke="#000000" d="M 579.790482243984 709.8373251423759 L 584 720 L 588.209517756016 709.8373251423759" stroke-miterlimit="10"/></g></g></svg>